<svg width="68" height="68" viewBox="0 0 68 68" fill="none" xmlns="http://www.w3.org/2000/svg">
<g filter="url(#filter0_d_78_107)">
<rect x="10" y="10" width="48" height="48" rx="20" fill="white"/>
</g>
<g clip-path="url(#clip0_78_107)">
<path d="M26.2083 45.2326H39.9583C40.8106 45.2302 41.627 44.8861 42.2285 44.276C42.83 43.6659 43.1674 42.8395 43.1667 41.9783V34.9963C43.1667 34.7506 43.0701 34.5149 42.8982 34.3412C42.7263 34.1675 42.4931 34.0699 42.25 34.0699C42.0069 34.0699 41.7737 34.1675 41.6018 34.3412C41.4299 34.5149 41.3333 34.7506 41.3333 34.9963V41.9783C41.3346 42.3483 41.1905 42.7037 40.9327 42.9665C40.6749 43.2292 40.3245 43.3779 39.9583 43.3799H26.2083C25.8422 43.3779 25.4918 43.2292 25.234 42.9665C24.9762 42.7037 24.8321 42.3483 24.8333 41.9783V28.1069C24.8321 27.7368 24.9762 27.3815 25.234 27.1187C25.4918 26.8559 25.8422 26.7072 26.2083 26.7053H33.0833C33.3264 26.7053 33.5596 26.6077 33.7315 26.4339C33.9034 26.2602 34 26.0246 34 25.7789C34 25.5332 33.9034 25.2976 33.7315 25.1239C33.5596 24.9501 33.3264 24.8525 33.0833 24.8525H26.2083C25.3561 24.855 24.5397 25.199 23.9382 25.8091C23.3367 26.4193 22.9993 27.2456 23 28.1069V41.9783C22.9993 42.8395 23.3367 43.6659 23.9382 44.276C24.5397 44.8861 25.3561 45.2302 26.2083 45.2326Z" fill="#3A3A3A"/>
<path d="M31.6671 32.7676L30.9439 36.1155C30.9111 36.2674 30.9167 36.4251 30.9601 36.5742C31.0035 36.7233 31.0834 36.859 31.1923 36.9687C31.3027 37.0757 31.437 37.1542 31.5838 37.1976C31.7306 37.2409 31.8856 37.2479 32.0356 37.2179L35.3411 36.4851C35.5127 36.4471 35.6699 36.3599 35.7939 36.2341L44.1484 27.7912C44.4039 27.5331 44.6065 27.2267 44.7447 26.8895C44.8829 26.5523 44.9541 26.1909 44.9541 25.8259C44.9541 25.4609 44.8829 25.0995 44.7447 24.7623C44.6065 24.4251 44.4039 24.1187 44.1484 23.8606C43.6248 23.3549 42.9285 23.0728 42.2042 23.0728C41.4799 23.0728 40.7836 23.3549 40.2599 23.8606L31.9183 32.3119C31.7931 32.4363 31.7059 32.5945 31.6671 32.7676ZM41.5561 25.1714C41.7305 25.0026 41.9627 24.9083 42.2042 24.9083C42.4457 24.9083 42.6779 25.0026 42.8523 25.1714C43.0219 25.3462 43.1168 25.5811 43.1168 25.8259C43.1168 26.0707 43.0219 26.3056 42.8523 26.4804L42.2042 27.1353L40.908 25.8254L41.5561 25.1714ZM33.3978 33.4291L39.6073 27.1381L40.8906 28.4415L34.6784 34.7343L33.0329 35.0993L33.3978 33.4291Z" fill="#3A3A3A"/>
</g>
<defs>
<filter id="filter0_d_78_107" x="0" y="0" width="68" height="68" filterUnits="userSpaceOnUse" color-interpolation-filters="sRGB">
<feFlood flood-opacity="0" result="BackgroundImageFix"/>
<feColorMatrix in="SourceAlpha" type="matrix" values="0 0 0 0 0 0 0 0 0 0 0 0 0 0 0 0 0 0 127 0" result="hardAlpha"/>
<feOffset/>
<feGaussianBlur stdDeviation="5"/>
<feComposite in2="hardAlpha" operator="out"/>
<feColorMatrix type="matrix" values="0 0 0 0 0.883333 0 0 0 0 0.883333 0 0 0 0 0.883333 0 0 0 0.64 0"/>
<feBlend mode="normal" in2="BackgroundImageFix" result="effect1_dropShadow_78_107"/>
<feBlend mode="normal" in="SourceGraphic" in2="effect1_dropShadow_78_107" result="shape"/>
</filter>
<clipPath id="clip0_78_107">
<rect width="22" height="22.2328" fill="white" transform="translate(23 23)"/>
</clipPath>
</defs>
</svg>
