<svg width="21" height="21" viewBox="0 0 21 21" fill="none" xmlns="http://www.w3.org/2000/svg">
<g clip-path="url(#clip0_78_1205)">
<path d="M3.36656 12.1897H0.137812C0.065625 12.1897 0 12.2488 0 12.3275V18.831C0 18.9064 0.065625 18.9688 0.137812 18.9688H3.36328C3.44203 18.9688 3.50109 18.9031 3.50109 18.831V12.3275C3.50191 12.3095 3.49901 12.2915 3.49258 12.2746C3.48615 12.2577 3.47632 12.2424 3.46371 12.2294C3.4511 12.2165 3.43597 12.2063 3.41926 12.1995C3.40255 12.1927 3.38461 12.1893 3.36656 12.1897ZM2.11641 18.3585C1.80469 18.3585 1.54875 18.1025 1.54875 17.7908C1.54875 17.4758 1.80469 17.2199 2.11641 17.2199C2.43141 17.2199 2.68734 17.4758 2.68734 17.7908C2.68734 18.1025 2.43141 18.3585 2.11641 18.3585ZM20.1305 14.8442L14.9625 16.5472C14.7623 16.731 14.4998 16.836 14.2308 16.836H8.84953C8.80471 16.836 8.76173 16.8182 8.73004 16.7865C8.69835 16.7548 8.68055 16.7118 8.68055 16.667C8.68055 16.6222 8.69835 16.5792 8.73004 16.5475C8.76173 16.5158 8.80471 16.498 8.84953 16.498H14.2308C14.4178 16.498 14.5983 16.4258 14.7361 16.3011C14.7459 16.288 14.7591 16.2781 14.7722 16.265C14.9002 16.1305 14.9723 15.9467 14.9723 15.7531C14.9723 15.343 14.6409 15.0083 14.2308 15.0083H10.5164C10.418 15.0083 10.3327 14.9722 10.2638 14.8967C8.6625 13.0789 5.72906 12.8033 4.12125 12.8033C4.02281 12.8033 3.92766 12.8066 3.83906 12.8066V18.1025L8.77734 19.7858C9.94547 20.1828 11.1956 20.2878 12.4261 20.068C13.2088 19.9316 13.9644 19.6701 14.6639 19.2936L20.6555 16.0386C20.8687 15.9238 20.9967 15.7039 20.9967 15.4644C20.9967 15.366 20.977 15.2741 20.9311 15.1855C20.8636 15.0395 20.7444 14.9238 20.5965 14.8608C20.4485 14.7977 20.2825 14.7918 20.1305 14.8442ZM8.72484 3.69127L8.70187 5.28924C8.70187 5.30564 8.71172 5.31549 8.72484 5.31549H20.9803C20.9902 5.31549 21 5.30564 21 5.28924V3.71096L8.72484 3.69127ZM13.9388 12.9083V5.64689H9.30562V12.7377C9.30562 12.8328 9.38109 12.9116 9.47625 12.9116H13.9388V12.9083ZM20.3995 12.7377V5.64689H15.7631V12.9083H20.2289C20.3208 12.9083 20.3995 12.8295 20.3995 12.7377ZM14.2734 5.64689H15.4317V12.9083H14.2734V5.64689ZM12.9511 3.3008L13.7222 3.55674H15.8452L16.6195 3.3008C16.826 3.2332 17.0116 3.1134 17.1582 2.95301C17.3048 2.79262 17.4075 2.59707 17.4563 2.38533C17.5613 1.95549 17.4333 1.50924 17.1183 1.19096C16.8787 0.948145 16.5605 0.816895 16.2225 0.816895C16.1208 0.816895 16.0223 0.830019 15.9239 0.852988C15.7122 0.901846 15.5167 1.00454 15.3563 1.15113C15.1959 1.29771 15.0761 1.48323 15.0084 1.68971L14.7886 2.3558L14.5655 1.68971C14.4178 1.26643 14.0766 0.951426 13.6434 0.852988C13.4321 0.80137 13.211 0.80537 13.0017 0.864599C12.7924 0.923828 12.602 1.03627 12.4491 1.19096C12.1341 1.50596 12.0061 1.95221 12.1078 2.38533C12.1586 2.59721 12.2627 2.79257 12.4103 2.95282C12.5579 3.11307 12.7441 3.23286 12.9511 3.3008ZM15.7041 1.92268C15.7631 1.74549 15.9075 1.61424 16.088 1.57158C16.1306 1.56174 16.1733 1.55518 16.2127 1.55518C16.3538 1.55518 16.4883 1.61096 16.5867 1.71268C16.718 1.84064 16.7738 2.03096 16.7311 2.21143C16.6852 2.39518 16.5539 2.53955 16.3767 2.59861L15.3595 2.93658L15.7041 1.92268ZM12.9708 1.71596C13.0725 1.61424 13.207 1.55846 13.3481 1.55846C13.3908 1.55846 13.4334 1.56502 13.4761 1.57486C13.6566 1.61752 13.8009 1.74877 13.86 1.92596L14.198 2.94314L13.1808 2.60518C13.0036 2.54611 12.8723 2.40174 12.8264 2.22127C12.787 2.03424 12.8395 1.84721 12.9708 1.71596Z" fill="#926CFF"/>
</g>
<defs>
<clipPath id="clip0_78_1205">
<rect width="21" height="21" fill="white"/>
</clipPath>
</defs>
</svg>
