<svg width="54" height="48" viewBox="0 0 54 48" fill="none" xmlns="http://www.w3.org/2000/svg">
<rect width="54" height="48" rx="10" fill="white"/>
<path d="M27.5 34.9022C27.342 34.9022 27.183 34.8642 27.037 34.7892C25.4047 33.9378 23.591 33.4931 21.75 33.4931C19.909 33.4931 18.0953 33.9378 16.463 34.7892C16.3105 34.8682 16.1402 34.9067 15.9685 34.9009C15.7968 34.8952 15.6294 34.8454 15.4825 34.7563C15.3356 34.6673 15.2141 34.5419 15.1296 34.3923C15.0451 34.2428 15.0005 34.074 15 33.9022V14.9022C15 14.7409 15.039 14.582 15.1137 14.439C15.1884 14.296 15.2966 14.1733 15.429 14.0812C19.21 11.4502 24.29 11.4502 28.072 14.0812C28.34 14.2682 28.5 14.5752 28.5 14.9022V33.9022C28.5 34.1674 28.3946 34.4217 28.2071 34.6093C28.0196 34.7968 27.7652 34.9022 27.5 34.9022ZM21.75 31.4932C23.36 31.4932 24.971 31.7822 26.5 32.3602V15.4422C25.0694 14.5691 23.4259 14.1072 21.75 14.1072C20.0741 14.1072 18.4306 14.5691 17 15.4422V32.3602C18.518 31.7867 20.1273 31.493 21.75 31.4932Z" fill="#F27851"/>
<path d="M39 34.9022C38.842 34.9022 38.683 34.8642 38.537 34.7892C36.9047 33.9378 35.091 33.4931 33.25 33.4931C31.409 33.4931 29.5953 33.9378 27.963 34.7892C27.8105 34.8682 27.6402 34.9067 27.4685 34.9009C27.2968 34.8952 27.1294 34.8454 26.9825 34.7563C26.8356 34.6673 26.7141 34.5419 26.6296 34.3923C26.5451 34.2428 26.5005 34.074 26.5 33.9022V14.9022C26.5 14.7409 26.539 14.582 26.6137 14.439C26.6884 14.296 26.7966 14.1733 26.929 14.0812C30.71 11.4502 35.79 11.4502 39.572 14.0812C39.84 14.2682 40 14.5752 40 14.9022V33.9022C40 34.1674 39.8946 34.4217 39.7071 34.6093C39.5196 34.7968 39.2652 34.9022 39 34.9022ZM33.25 31.4932C34.86 31.4932 36.471 31.7822 38 32.3602V15.4422C36.5694 14.5691 34.9259 14.1072 33.25 14.1072C31.5741 14.1072 29.9306 14.5691 28.5 15.4422V32.3602C30.018 31.7867 31.6273 31.493 33.25 31.4932Z" fill="#F27851"/>
</svg>
