<svg width="40" height="38" viewBox="0 0 40 38" fill="none" xmlns="http://www.w3.org/2000/svg">
<mask id="path-1-inside-1_72_2641" fill="white">
<path d="M0 0H35C37.7614 0 40 2.23858 40 5V32.8939C40 35.6554 37.7614 37.8939 35 37.8939H0V0Z"/>
</mask>
<path d="M0 0H35C37.7614 0 40 2.23858 40 5V32.8939C40 35.6554 37.7614 37.8939 35 37.8939H0V0Z" fill="white"/>
<path d="M0 0H40H0ZM40 37.8939H0H40ZM-1 37.8939V0H1V37.8939H-1ZM40 0V37.8939V0Z" fill="#F76B56" mask="url(#path-1-inside-1_72_2641)"/>
<g clip-path="url(#clip0_72_2641)">
<path d="M24.4281 20.5654H23.1655C22.8168 20.5654 22.5341 20.8551 22.5341 21.2125V25.7422C22.5341 26.0996 22.8168 26.3893 23.1655 26.3893H24.4281C24.7767 26.3893 25.0594 26.0996 25.0594 25.7422V21.2125C25.0594 20.8551 24.7767 20.5654 24.4281 20.5654Z" fill="#F76B56"/>
<path d="M26.322 21.5361H25.6907V25.4187H26.322C26.4895 25.4187 26.65 25.3505 26.7684 25.2292C26.8868 25.1078 26.9533 24.9432 26.9533 24.7716V22.1832C26.9533 22.0116 26.8868 21.847 26.7684 21.7257C26.65 21.6043 26.4895 21.5361 26.322 21.5361Z" fill="#F76B56"/>
<path d="M16.221 20.5654H14.9584C14.6097 20.5654 14.3271 20.8551 14.3271 21.2125V25.7422C14.3271 26.0996 14.6097 26.3893 14.9584 26.3893H16.221C16.5697 26.3893 16.8523 26.0996 16.8523 25.7422V21.2125C16.8523 20.8551 16.5697 20.5654 16.221 20.5654Z" fill="#F76B56"/>
<path d="M12.4331 22.1833V24.7717C12.4331 24.9433 12.4996 25.1079 12.618 25.2293C12.7364 25.3506 12.897 25.4188 13.0644 25.4188H13.6958V21.5362H13.0644C12.897 21.5362 12.7364 21.6044 12.618 21.7258C12.4996 21.8471 12.4331 22.0117 12.4331 22.1833ZM23.9136 17.6051C23.9986 17.8866 24.1465 18.144 24.3453 18.3568C24.5442 18.5696 24.7887 18.7321 25.0594 18.8314C25.0594 17.3726 24.494 15.9736 23.4877 14.9421C22.4813 13.9106 21.1164 13.3311 19.6932 13.3311C18.27 13.3311 16.9051 13.9106 15.8988 14.9421C14.8924 15.9736 14.3271 17.3726 14.3271 18.8314C14.5972 18.7317 14.841 18.569 15.0393 18.3562C15.2376 18.1434 15.385 17.8863 15.4698 17.6051C16.7576 13.3602 22.6415 13.3764 23.9136 17.6051Z" fill="#F76B56"/>
<path d="M24.8258 13.6868C20.2835 9.03097 12.4331 12.3182 12.4331 18.9477V21.0637C12.8088 20.8437 13.0865 20.889 13.6958 20.889C13.6958 18.8377 13.4306 16.6829 15.454 14.6025C19.1913 10.762 25.6907 13.4474 25.6907 18.9477V20.889C26.3031 20.889 26.584 20.8469 26.9533 21.0637C26.9533 18.8054 27.269 16.1749 24.8258 13.6868Z" fill="#F76B56"/>
</g>
<defs>
<clipPath id="clip0_72_2641">
<path d="M12.1175 11.1826H27.269V26.7129H12.1175V11.1826Z" fill="white"/>
</clipPath>
</defs>
</svg>
