<svg width="10" height="10" viewBox="0 0 10 10" fill="none" xmlns="http://www.w3.org/2000/svg">
<path d="M3.94874 9.75397C4.38459 9.75397 4.71409 9.58661 4.93724 9.25188L9.76464 1.97678C9.84484 1.85823 9.90411 1.74142 9.94247 1.62636C9.98082 1.50781 10 1.39449 10 1.2864C10 0.98654 9.8954 0.738981 9.68619 0.543723C9.48047 0.344978 9.22594 0.245605 8.92259 0.245605C8.71339 0.245605 8.53556 0.287446 8.38912 0.371128C8.24616 0.451324 8.11018 0.590794 7.98117 0.789539L3.92782 7.1546L1.89854 4.72259C1.67887 4.46806 1.40342 4.34079 1.07218 4.34079C0.761855 4.34079 0.505579 4.44017 0.303347 4.63891C0.101116 4.83766 0 5.08696 0 5.38682C0 5.5228 0.0209205 5.65181 0.0627615 5.77385C0.108089 5.8924 0.190028 6.01618 0.308577 6.14519L3.00209 9.31987C3.24965 9.60927 3.5652 9.75397 3.94874 9.75397Z" fill="white"/>
</svg>
