<svg width="40" height="40" viewBox="0 0 40 40" fill="none" xmlns="http://www.w3.org/2000/svg">
<path d="M16.0163 14.0479L13.9834 25.9774H17.2346L19.2692 14.0479H16.0163Z" fill="white"/>
<path d="M11.2573 14.0611L8.07291 22.1967L7.7334 20.9683C7.1054 19.4882 5.32256 17.3625 3.22949 16.0229L6.14123 25.9715L9.58146 25.9656L14.7017 14.0586L11.2573 14.0611Z" fill="white"/>
<path d="M6.49914 14.9145C6.31016 14.1878 5.76243 13.9712 5.08258 13.9453H0.0418113L0 14.1828C3.92273 15.1344 6.51838 17.4274 7.59543 20.1844L6.49914 14.9145Z" fill="white"/>
<path d="M25.8585 16.3347C26.9222 16.318 27.6932 16.5505 28.2919 16.7913L28.5854 16.9293L29.0253 14.3437C28.3814 14.102 27.3721 13.8428 26.1127 13.8428C22.8999 13.8428 20.6354 15.4609 20.6179 17.7797C20.597 19.4931 22.231 20.4498 23.4652 21.0209C24.7321 21.6063 25.1569 21.9784 25.1511 22.5011C25.141 23.2996 24.1409 23.6659 23.2068 23.6659C21.9048 23.6659 21.2133 23.4861 20.1454 23.0413L19.7265 22.8506L19.269 25.5207C20.03 25.8543 21.434 26.1411 22.8916 26.1562C26.3092 26.1562 28.5302 24.5573 28.5537 22.0796C28.5679 20.7241 27.7007 19.6897 25.8217 18.8409C24.6844 18.2873 23.9887 17.9194 23.9954 17.3608C23.9954 16.8649 24.5858 16.3347 25.8585 16.3347Z" fill="white"/>
<path d="M37.3694 14.0615H34.8573C34.0771 14.0615 33.4968 14.2739 33.1539 15.0516L28.3264 25.9844H31.7407C31.7407 25.9844 32.2976 24.5143 32.4239 24.1924C32.7977 24.1924 36.115 24.1974 36.5875 24.1974C36.6845 24.6139 36.9839 25.9844 36.9839 25.9844H40.0001L37.3694 14.0615ZM33.3597 21.7506C33.6272 21.0657 34.655 18.4166 34.655 18.4166C34.6374 18.4492 34.9201 17.7267 35.0881 17.2776L35.3072 18.3062C35.3072 18.3062 35.9302 21.1544 36.0607 21.7506H33.3597Z" fill="white"/>
</svg>
